<svg xmlns="http://www.w3.org/2000/svg" viewBox="0 0 64 64" role="img" aria-label="Pendleton favicon">
  <defs>
    <linearGradient id="sun" x1="0" y1="0" x2="1" y2="1">
      <stop offset="0%" stop-color="#f7e481"/>
      <stop offset="100%" stop-color="#f2cc3b"/>
    </linearGradient>
    <linearGradient id="wave1" x1="0" y1="0" x2="1" y2="0">
      <stop offset="0%" stop-color="#20c6d8"/>
      <stop offset="100%" stop-color="#40aee8"/>
    </linearGradient>
    <linearGradient id="wave2" x1="0" y1="0" x2="1" y2="0">
      <stop offset="0%" stop-color="#2bc4e4"/>
      <stop offset="100%" stop-color="#3aa3e3"/>
    </linearGradient>
    <clipPath id="c">
      <circle cx="32" cy="32" r="30"/>
    </clipPath>
  </defs>
  <g clip-path="url(#c)">
    <path d="M5 34a27 27 0 0 1 54 0H44a12 12 0 0 0-24 0z" fill="url(#sun)"/>
    <path d="M-2 38c12-6 24-6 34 0s22 6 34 0v10c-12 6-24 6-34 0s-22-6-34 0z" fill="url(#wave1)"/>
    <path d="M-2 48c12-6 24-6 34 0s22 6 34 0v18H-2z" fill="url(#wave2)"/>
    <path d="M-2 38c12-6 24-6 34 0s22 6 34 0" fill="none" stroke="#fff" stroke-width="2.5" stroke-linecap="round"/>
    <path d="M-2 48c12-6 24-6 34 0s22 6 34 0" fill="none" stroke="#fff" stroke-width="2.5" stroke-linecap="round"/>
  </g>
</svg>
